<?xml version="1.0" standalone="no"?>
<!DOCTYPE svg PUBLIC "-//W3C//DTD SVG 1.1//EN" "http://www.w3.org/Graphics/SVG/1.1/DTD/svg11.dtd" >
<svg xmlns="http://www.w3.org/2000/svg">
<metadata>Generated by IcoMoon</metadata>
<defs>
<font id="scalia-zaro-icons" horiz-adv-x="1024">
<font-face units-per-em="1024" ascent="960" descent="-64" />
<missing-glyph horiz-adv-x="1024" />
<glyph unicode="&#x20;" d="" horiz-adv-x="512" />
<glyph unicode="&#xe600;" d="M512 721.193c16.962 0 31.678-6.202 44.19-18.61l439.174-439.234c12.35-12.35 18.556-27.010 18.556-44.084s-6.202-31.73-18.556-44.19c-12.462-12.462-27.116-18.556-44.19-18.556h-878.36c-16.96 0-31.678 6.092-44.136 18.556s-18.664 27.116-18.61 44.19c0.052 17.072 6.26 31.73 18.61 44.084l439.176 439.232c12.406 12.406 27.118 18.61 44.136 18.61z" />
<glyph unicode="&#xe601;" d="M794.336 438.857c0-17.020-6.202-31.678-18.556-44.19l-439.234-439.174c-12.406-12.35-27.064-18.556-44.136-18.556-17.020 0-31.73 6.202-44.136 18.556-12.462 12.462-18.61 27.116-18.61 44.19v878.36c0 16.962 6.146 31.678 18.61 44.136 12.406 12.464 27.118 18.664 44.136 18.61 17.072-0.050 31.73-6.202 44.136-18.61l439.232-439.174c12.298-12.406 18.556-27.118 18.556-44.136z" />
<glyph unicode="&#xe602;" d="M512 156.521c-16.962 0-31.678 6.202-44.19 18.556l-439.176 439.232c-12.298 12.406-18.556 27.066-18.556 44.136 0 17.020 6.202 31.73 18.556 44.136 12.464 12.464 27.118 18.61 44.19 18.61h878.36c16.962 0 31.678-6.146 44.19-18.61 12.462-12.406 18.61-27.118 18.556-44.136 0-17.070-6.202-31.73-18.556-44.136l-439.174-439.232c-12.462-12.298-27.174-18.556-44.19-18.556z" />
<glyph unicode="&#xe603;" d="M248.272 482.993l439.174 439.176c12.406 12.35 27.066 18.556 44.136 18.61s31.73-6.148 44.19-18.61c12.298-12.462 18.556-27.174 18.556-44.136v-878.36c0-17.072-6.202-31.73-18.556-44.19-12.462-12.35-27.116-18.556-44.19-18.556s-31.73 6.202-44.19 18.556l-439.176 439.174c-12.35 12.516-18.556 27.174-18.556 44.19s6.202 31.73 18.61 44.136z" />
<glyph unicode="&#xe604;" d="M813.448 822.231c-83.164 81.884-192.346 122.808-301.448 122.808v-0.038c-109.062 0-218.242-40.924-301.448-122.808-166.45-163.812-166.45-429.374 0-593.106l301.448-296.412 301.448 296.53c166.45 163.732 166.45 429.25 0 593.024zM738.716 305.015l-226.716-222.918-226.676 223c-59.944 59.028-92.996 137.314-92.996 220.6s33.050 161.572 92.996 220.642c60.464 59.306 141.032 92.036 226.676 92.036v0.038c85.722 0 166.25-32.73 226.676-92.196 59.986-58.988 93.038-137.438 93.038-220.602s-33.052-161.454-92.996-220.6zM512 705.257c-47.758 0-95.476-18.226-131.88-54.55-72.856-72.856-72.856-190.986 0-263.802 36.446-36.446 84.084-54.55 131.88-54.55 47.756 0 95.476 18.226 131.88 54.55 72.774 72.856 72.774 190.986 0 263.802-36.408 36.408-84.124 54.55-131.88 54.55zM606.198 424.549c-25.216-25.136-58.626-38.966-94.198-38.966s-69.018 13.908-94.198 38.966c-51.992 51.992-51.992 136.556 0 188.47 25.216 25.096 58.668 38.966 94.198 38.966 35.608 0 69.096-13.868 94.198-38.966 51.994-51.992 51.994-136.516 0-188.47z" />
<glyph unicode="&#xe605;" d="M935.734 806.407v0l-89.786 89.714c-28.278 28.356-66.010 43.956-106.066 43.956-40.018 0-77.712-15.602-106.026-43.956l-79.322-79.322c-58.508-58.508-58.508-153.62 0-212.13l68.972-68.972-208.64-208.604-68.972 68.934c-28.314 28.356-66.010 43.956-106.064 43.956s-77.748-15.602-106.064-43.956l-79.322-79.36c-58.506-58.47-58.506-153.624 0-212.056l89.712-89.75c23.254-23.216 89.824-77.222 205.826-77.222 138.206 0 284.702 76.474 435.622 227.242 312.308 312.38 241.308 550.202 150.134 641.526zM625.266 746.099l79.286 79.322c9.788 9.752 22.538 14.666 35.33 14.666 12.862 0 25.654-4.914 35.366-14.664l54.158-54.12-150.058-150.020-54.082 54.12c-19.542 19.542-19.542 51.158 0 70.698zM125.206 175.307v0c-19.578 19.542-19.578 51.194-0.038 70.698l79.324 79.322c9.752 9.75 22.538 14.664 35.366 14.664s25.614-4.914 35.366-14.664l54.12-54.12-149.984-150.020-54.158 54.12zM714.906 235.579v0.074c-154.186-154.11-277.576-197.99-364.888-197.99-67.474 0-113.378 26.14-135.132 47.97-0.188 0.226 149.758 150.246 149.758 150.246l14.854-14.852c9.75-9.75 22.538-14.664 35.368-14.664s25.616 4.914 35.368 14.664l279.338 279.3c19.542 19.54 19.542 51.156 0 70.696l-14.852 14.854 150.096 150.020c50.070-50.22 123.318-226.982-149.908-500.318z" />
<glyph unicode="&#xe606;" d="M786.996 933.891h-550.028c-90.964 0-165.014-74.048-165.014-165.014v-660.050c0-90.964 74.050-165.014 165.014-165.014h550.028c90.964 0 165.014 74.048 165.014 165.014v660.050c0 90.964-74.048 165.014-165.014 165.014zM841.942 108.835c0-30.278-24.67-54.99-54.948-54.99h-550.028c-30.278 0-54.99 24.708-54.99 54.99v660.050c0 30.278 24.67 54.99 54.99 54.99h550.028c30.278 0 54.948-24.67 54.948-54.99v-660.050zM731.962 548.881h-440.004c-15.18 0-27.516-12.336-27.516-27.516s12.336-27.516 27.516-27.516h440.044c15.182 0 27.516 12.336 27.516 27.516s-12.334 27.516-27.558 27.516zM731.962 713.891h-440.004c-15.18 0-27.516-12.334-27.516-27.516s12.336-27.516 27.516-27.516h440.044c15.182 0 27.516 12.334 27.516 27.516s-12.334 27.516-27.558 27.516zM731.962 383.867h-440.004c-15.18 0-27.516-12.334-27.516-27.516s12.336-27.516 27.516-27.516h440.044c15.182 0 27.516 12.334 27.516 27.516s-12.334 27.516-27.558 27.516zM731.962 218.853h-440.004c-15.18 0-27.516-12.334-27.516-27.516s12.336-27.516 27.516-27.516h440.044c15.182 0 27.516 12.334 27.516 27.516s-12.334 27.516-27.558 27.516z" />
<glyph unicode="&#xe607;" d="M897.058 796.399h-770.072c-60.766 0-110.022-49.298-110.022-110.024v-495.036c0-60.766 49.298-110.024 110.022-110.024h770.072c60.682 0 109.98 49.256 109.98 110.024v495.036c0 60.722-49.298 110.022-109.98 110.022zM126.984 686.375h770.072v-11.552l-361.79-316.494c-12.458-10.89-34.118-10.89-46.616 0l-361.666 316.492v11.552zM126.984 601.681l198.138-173.306-198.138-198.138v371.442zM165.888 191.421l200.532 200.532-1.732 1.732 87.788-76.73c16.79-14.644 37.992-21.904 59.528-21.904 21.496 0 42.778 7.342 59.528 21.904l88.158 77.020-2.106-2.020 200.532-200.53h-692.226zM897.058 230.323l-198.138 198.016 198.138 173.306v-371.318z" />
<glyph unicode="&#xe608;" d="M802.592 397.329v83.058c0 11.226-4.034 20.964-12.28 29.212s-17.948 12.354-29.248 12.318h-498.236c-11.228 0-20.966-4.106-29.212-12.318s-12.354-17.948-12.318-29.212v-83.058c0-11.264 4.104-21 12.318-29.248s17.948-12.352 29.212-12.318h498.272c11.298 0 21 4.106 29.248 12.318 8.212 8.248 12.318 17.984 12.246 29.248zM1010.308 438.857c0-90.398-22.272-173.782-66.852-250.116-44.582-76.374-105.038-136.794-181.302-181.338-76.374-44.582-159.72-66.818-250.154-66.818-90.396 0-173.782 22.236-250.116 66.818-76.372 44.582-136.794 105.002-181.338 181.338-44.582 76.336-66.816 159.72-66.816 250.116s22.272 173.782 66.816 250.116c44.546 76.374 105.002 136.794 181.338 181.338s159.72 66.818 250.116 66.818c90.432 0 173.818-22.272 250.154-66.818 76.3-44.544 136.758-105.002 181.302-181.338 44.582-76.336 66.852-159.72 66.852-250.116z" />
<glyph unicode="&#xe609;" d="M802.592 397.329v83.058c0 11.226-4.034 20.964-12.28 29.212s-17.948 12.354-29.248 12.318h-166.044v166.078c0 11.264-4.106 20.966-12.352 29.212-8.174 8.248-17.948 12.318-29.176 12.318h-83.058c-11.226 0-20.964-4.104-29.212-12.318s-12.354-17.948-12.318-29.212v-166.078h-166.080c-11.228 0-20.966-4.106-29.212-12.318s-12.354-17.948-12.318-29.212v-83.058c0-11.264 4.104-21 12.318-29.248s17.948-12.352 29.212-12.318h166.080v-166.078c0-11.226 4.106-20.928 12.318-29.212 8.212-8.212 17.948-12.28 29.176-12.28h83.058c11.264 0 20.966 4.106 29.212 12.318s12.352 17.948 12.352 29.212v166.078h166.044c11.298 0 21 4.106 29.248 12.318s12.352 17.948 12.28 29.212zM1010.308 438.857c0-90.398-22.272-173.782-66.852-250.116-44.582-76.374-105.038-136.794-181.302-181.338-76.374-44.582-159.72-66.818-250.154-66.818-90.396 0-173.782 22.236-250.116 66.818-76.372 44.582-136.794 105.002-181.338 181.338-44.582 76.336-66.816 159.72-66.816 250.116s22.272 173.782 66.816 250.116c44.546 76.374 105.002 136.794 181.338 181.338s159.72 66.818 250.116 66.818c90.432 0 173.818-22.272 250.154-66.818 76.3-44.544 136.758-105.002 181.302-181.338 44.582-76.336 66.852-159.72 66.852-250.116z" />
<glyph unicode="&#xe60a;" d="M550.974 127.135v428.608c0 42.214 8.218 82.518 24.686 120.876 16.402 38.36 38.668 71.606 66.626 99.564 28.028 27.994 61.24 50.262 99.6 66.662 38.36 16.436 78.664 24.652 120.876 24.652h38.94c10.604 0 19.708-3.82 27.448-11.526 7.706-7.74 11.592-16.844 11.524-27.448v-77.914c0-10.604-3.818-19.708-11.524-27.448-7.74-7.74-16.844-11.594-27.448-11.594h-38.974c-43.032 0-79.788-15.174-110.204-45.624s-45.658-67.206-45.658-110.204v-19.434c0-16.264 5.694-30.040 17.048-41.43 11.356-11.322 25.164-17.048 41.394-17.048h136.39c32.496 0 60.15-11.322 82.856-34.098 22.708-22.744 34.098-50.33 34.098-82.824v-233.774c0-32.496-11.39-60.082-34.098-82.856-22.778-22.708-50.362-34.098-82.856-34.098h-233.878c-32.462 0-60.082 11.39-82.788 34.098-22.674 22.812-34.062 50.362-34.062 82.856zM5.408 127.135v428.608c0 42.214 8.218 82.518 24.686 120.876 16.402 38.394 38.634 71.606 66.594 99.6 28.028 27.994 61.24 50.26 99.6 66.66 38.394 16.436 78.698 24.652 120.91 24.652h38.974c10.536 0 19.676-3.82 27.45-11.526 7.74-7.74 11.594-16.844 11.524-27.448v-77.914c0-10.604-3.82-19.71-11.524-27.45-7.74-7.74-16.844-11.592-27.45-11.592h-38.974c-43.1 0-79.788-15.174-110.204-45.622s-45.692-67.208-45.692-110.204v-19.436c0-16.264 5.728-30.040 17.050-41.428 11.39-11.322 25.164-17.048 41.43-17.048h136.39c32.496 0 60.082-11.322 82.858-34.098 22.744-22.744 34.098-50.33 34.098-82.824v-233.774c0-32.496-11.356-60.082-34.098-82.856-22.778-22.708-50.362-34.098-82.856-34.098h-233.842c-32.46 0-60.082 11.39-82.79 34.098-22.744 22.778-34.132 50.328-34.132 82.822z" />
<glyph unicode="&#xe60b;" d="M473.026 750.613v-428.644c0-42.212-8.218-82.516-24.652-120.876s-38.668-71.572-66.662-99.564-61.206-50.226-99.564-66.662c-38.36-16.436-78.664-24.652-120.876-24.652h-38.94c-10.57 0-19.71 3.852-27.414 11.558s-11.594 16.81-11.558 27.414v77.948c0 10.57 3.852 19.674 11.558 27.414s16.844 11.592 27.414 11.592h38.974c43.032 0 79.754 15.174 110.204 45.624s45.656 67.206 45.656 110.204v19.47c0 16.23-5.694 30.006-17.048 41.394-11.356 11.356-25.164 17.048-41.394 17.048h-136.39c-32.496 0-60.116 11.356-82.822 34.098-22.744 22.744-34.098 50.33-34.098 82.822v233.808c0 32.496 11.356 60.082 34.098 82.822s50.328 34.098 82.822 34.098h233.808c32.496 0 60.082-11.356 82.822-34.098 22.71-22.744 34.062-50.362 34.062-82.822zM1018.592 750.613v-428.644c0-42.212-8.218-82.516-24.652-120.876s-38.668-71.572-66.66-99.564-61.206-50.226-99.566-66.662c-38.394-16.436-78.698-24.652-120.91-24.652h-38.974c-10.536 0-19.674 3.852-27.414 11.558s-11.592 16.81-11.558 27.414v77.948c0 10.57 3.852 19.674 11.558 27.414s16.844 11.592 27.414 11.592h38.974c43.066 0 79.788 15.174 110.204 45.624s45.692 67.206 45.692 110.204v19.47c0 16.23-5.728 30.006-17.048 41.394-11.39 11.356-25.164 17.048-41.428 17.048h-136.39c-32.496 0-60.082 11.356-82.822 34.098s-34.098 50.33-34.098 82.822v233.808c0 32.496 11.356 60.082 34.098 82.822s50.328 34.098 82.822 34.098h233.808c32.496 0 60.082-11.356 82.822-34.098 22.778-22.744 34.132-50.362 34.132-82.822z" />
<glyph unicode="&#xe60c;" d="M1008 562.857c0-9.61-3.504-17.886-10.51-24.924l-283.432-283.464c-7.006-7.006-15.314-10.51-24.924-10.51s-17.886 3.504-24.924 10.51-10.54 15.314-10.54 24.924v141.702h-124c-36.146 0-68.51-1.086-97.122-3.286s-57.010-6.168-85.25-11.934c-28.24-5.736-52.762-13.578-73.626-23.528s-40.332-22.784-58.404-38.472c-18.042-15.654-32.798-34.318-44.268-55.894s-20.398-47.15-26.846-76.694c-6.448-29.48-9.704-62.9-9.704-100.16 0-20.304 0.93-42.996 2.79-68.076 0-2.17 0.466-6.542 1.396-13.020 0.9-6.48 1.396-11.346 1.396-14.664 0-5.548-1.58-10.168-4.712-13.826s-7.472-5.548-12.99-5.548c-5.922 0-11.068 3.162-15.5 9.424-2.572 3.318-4.99 7.378-7.192 12.214-2.2 4.774-4.68 10.322-7.472 16.586-2.76 6.294-4.712 10.726-5.828 13.33-46.902 105.152-70.338 188.356-70.338 249.644 0 73.47 9.766 134.912 29.326 184.326 59.798 148.706 221.248 223.076 484.344 223.076h124v141.67c0 9.61 3.504 17.918 10.54 24.956 7.006 7.036 15.314 10.54 24.924 10.51s17.918-3.534 24.924-10.51l283.432-283.464c7.006-7.006 10.51-15.314 10.51-24.924v0z" />
<glyph unicode="&#xe60d;" d="M171 500.857h217c17.144 0 31 13.856 31 31v186c0 17.144-13.856 31-31 31h-217c-17.144 0-31-13.856-31-31v-186c0-17.112 13.856-31 31-31zM202 686.857h155v-124h-155v124zM496.5 593.857h155c8.524 0 15.5 6.944 15.5 15.5s-6.976 15.5-15.5 15.5h-155c-8.556 0-15.5-6.944-15.5-15.5s6.944-15.5 15.5-15.5zM868.5 159.857h-713c-8.556 0-15.5-6.914-15.5-15.5 0-8.524 6.944-15.5 15.5-15.5h713c8.524 0 15.5 6.976 15.5 15.5 0 8.586-6.976 15.5-15.5 15.5zM496.5 686.857h155c8.524 0 15.5 6.944 15.5 15.5s-6.976 15.5-15.5 15.5h-155c-8.556 0-15.5-6.914-15.5-15.5s6.944-15.5 15.5-15.5zM481 516.357c0-8.556 6.944-15.5 15.5-15.5h372c8.524 0 15.5 6.944 15.5 15.5s-6.976 15.5-15.5 15.5h-372c-8.556 0-15.5-6.914-15.5-15.5zM989.834 699.723l-186 186c-11.626 11.626-27.434 18.134-43.834 18.134h-651c-51.274 0-93-41.694-93-93v-744c0-51.274 41.726-93 93-93h806c51.274 0 93 41.726 93 93v589c0 16.462-6.542 32.24-18.166 43.866zM946 66.857c0-17.144-13.856-31-31-31h-806c-17.144 0-31 13.856-31 31v744c0 17.144 13.856 31 31 31h620v-124h-0.062c0-51.366 41.664-93 93-93h124.062v-558zM852.938 655.857h-31c-34.162 0-62 27.808-62 62h0.062v124l186-186h-93.062zM868.5 438.857h-713c-8.556 0-15.5-6.914-15.5-15.5s6.944-15.5 15.5-15.5h713c8.524 0 15.5 6.976 15.5 15.5 0 8.556-6.976 15.5-15.5 15.5zM868.5 252.857h-713c-8.556 0-15.5-6.914-15.5-15.5 0-8.524 6.944-15.5 15.5-15.5h713c8.524 0 15.5 6.976 15.5 15.5 0 8.586-6.976 15.5-15.5 15.5zM868.5 345.857h-713c-8.556 0-15.5-6.914-15.5-15.5 0-8.524 6.944-15.5 15.5-15.5h713c8.524 0 15.5 6.976 15.5 15.5 0 8.586-6.976 15.5-15.5 15.5z" />
<glyph unicode="&#xe60e;" d="M512 640.327c-136.99 0-248-111.012-248-248s111.010-248 248-248c136.958 0 248 111.042 248 248s-111.042 248-248 248zM653.206 271.271c-66.836-77.996-184.234-87.018-262.198-20.15-78.026 66.836-87.016 184.294-20.15 262.228 66.806 78.028 184.234 87.018 262.198 20.15 77.966-66.806 86.986-184.264 20.15-262.23zM512 516.327c8.556 0 15.5-6.944 15.5-15.5s-6.944-15.5-15.5-15.5c-51.368 0-92.968-41.632-93-92.968v-0.062c0-8.524-6.944-15.5-15.5-15.5s-15.5 6.976-15.5 15.5v0.062c0.032 68.448 55.522 123.97 124 123.97zM930.252 670.055l-134.354 22.414-42.562 106.454c-14.23 35.494-48.144 58.434-86.336 58.434h-310c-38.192 0-72.106-22.94-86.366-58.466l-42.532-106.424-134.324-22.414c-45.074-7.472-77.778-46.034-77.778-91.698v-465c0-51.274 41.726-93 93-93h806c51.274 0 93 41.726 93 93v465c0 45.664-32.706 84.226-77.748 91.698zM946 113.357c0-17.144-13.856-31-31-31h-806c-17.144 0-31 13.856-31 31v465c0 15.158 10.974 28.086 25.916 30.566l168.764 28.116 55.522 138.818c4.742 11.75 16.12 19.5 28.798 19.5h310c12.648 0 24.024-7.72 28.768-19.5l55.52-138.818 168.794-28.116c14.942-2.48 25.916-15.408 25.916-30.566v-465z" />
<glyph unicode="&#xe60f;" d="M946 748.857h-27.496c-16.274 0-31.9-6.418-43.524-17.856l-83.98-82.832v38.688c0 51.366-41.664 93-93 93h-589c-51.274 0-93-41.694-93-93v-496c0-51.336 41.634-93 93-93h589c51.336 0 93 41.664 93 93v37.85l83.98-82.832c11.626-11.438 27.25-17.856 43.524-17.856h27.496c34.224 0 62 27.776 62 62v496.836c0 34.254-27.776 62-62 62zM109 159.857c-17.112 0-31 13.918-31 31v496c0 17.144 13.856 31 31 31h589c17.082 0 31-13.888 31-31v-496c0-17.082-13.918-31-31-31h-589zM946 190.021h-31l-124 124v0.836l-31 31v186l155 155h31v-496.836z" />
<glyph unicode="&#xe610;" d="M512 934.857c-273.952 0-496-222.048-496-496s222.048-496 496-496c273.952 0 496 222.048 496 496s-222.048 496-496 496zM943.2 454.857h-191.872c-1.76 70.88-14.368 138.592-36.704 200.576 43.232 18.016 83.168 41.984 119.52 70.304 64.736-72.672 105.216-167.040 109.056-270.88zM494.304 7.721c-53.184 44.32-97.792 101.824-130.432 168.608 41.888 13.088 86.272 20.288 132.128 21.728v-190.368c-0.576-0.032-1.12 0.032-1.696 0.032zM529.632 869.961c60.384-50.24 109.632-117.536 142.944-196.032-45.664-15.584-94.112-24.64-144.608-26.24v222.368c0.608-0.032 1.12-0.064 1.664-0.096zM582.944 864.521c88.32-14.688 167.552-55.936 229.248-115.648-33.504-25.696-70.112-47.456-109.696-63.936-29.12 69.024-69.984 130.048-119.552 179.584zM496 870.057v-222.368c-50.464 1.632-98.976 10.656-144.576 26.24 33.312 78.496 82.56 145.792 142.912 196.032 0.576 0.032 1.088 0.064 1.664 0.096zM321.472 684.905c-39.52 16.48-76.16 38.24-109.664 63.936 61.664 59.712 140.928 100.96 229.248 115.648-49.6-49.504-90.432-110.528-119.584-179.584zM339.36 644.425c49.344-17.12 101.92-27.104 156.64-28.768v-160.8h-191.328c1.728 67.008 13.6 131.040 34.688 189.568zM496 422.857v-192.8c-50.464-1.504-99.264-9.792-145.248-24.608-27.712 65.984-44.064 139.456-46.080 217.408h191.328zM441.056 13.161c-79.136 13.184-151.008 47.616-209.44 97.696 31.52 21.888 65.6 40.384 102.016 54.4 27.904-57.824 64.416-109.216 107.424-152.096zM528 7.657v190.368c45.824-1.504 90.24-8.672 132.128-21.76-32.672-66.784-77.248-124.288-130.432-168.576-0.544 0.032-1.12-0.032-1.696-0.032zM690.368 165.257c36.384-14.016 70.432-32.608 102.016-54.4-58.432-50.016-130.304-84.512-209.44-97.696 43.008 42.88 79.488 94.272 107.424 152.096zM673.248 205.449c-46.016 14.816-94.816 23.104-145.248 24.608v192.8h191.328c-2.016-77.952-18.4-151.424-46.080-217.408zM528 454.857v160.8c54.688 1.664 107.264 11.616 156.64 28.736 21.056-58.528 32.928-122.56 34.688-189.568l-191.328 0.032zM189.888 725.737c36.416-28.32 76.352-52.288 119.52-70.304-22.368-61.984-34.976-129.696-36.736-200.576h-191.872c3.84 103.84 44.32 198.208 109.088 270.88zM80.8 422.857h191.872c1.984-81.76 19.072-159.008 48.096-228.384-40.544-15.808-78.336-36.864-113.216-61.824-75.136 74.848-122.56 177.056-126.752 290.208zM816.448 132.745c-34.88 24.864-72.672 45.984-113.248 61.76 29.056 69.44 46.112 146.624 48.128 228.416h191.872c-4.192-113.216-51.648-215.424-126.752-290.176z" />
<glyph unicode="&#xe611;" d="M731.552 582.995c-19.182-10.232-38.284-17.16-57.466-21.078-17.162 18.48-38.902 27.886-65.014 27.886-25.538 0-47.028-8.952-64.604-26.362-17.45-17.492-26.28-38.818-26.28-63.694 0-7.548 0.95-14.314 2.846-20.008-75.246 2.64-137.452 33.786-186.504 93.85-8.29-14.686-12.5-29.662-12.5-45.090 0-31.808 13.406-56.972 40.138-75.534-15.222 1.278-28.67 5.154-40.138 11.51 0-22.73 6.642-41.706 20.092-58.414 13.366-16.502 30.652-27.062 51.65-31.516-7.63-2.020-15.676-2.93-23.928-2.93-7.714 0-13.036 0.702-16.294 2.020 5.734-18.48 16.294-33.496 31.56-45.010 15.222-11.552 32.838-17.658 52.642-18.11-32.508-25.62-69.8-38.2-111.918-38.2-10.354 0-17.616 0.124-21.988 0.95 41.46-26.898 87.664-40.304 138.65-40.304 52.31 0 98.554 13.202 138.734 39.726 40.138 26.362 69.924 58.91 88.942 97.19 19.14 38.244 28.672 78.050 28.672 119.594v11.51c18.44 13.904 33.496 29.578 45.010 46.988-16.378-7.302-33.62-12.168-51.444-14.686 19.718 12.212 32.798 28.672 39.15 49.71zM861.538 789.549c-96.284 95.788-213.896 144.346-349.538 144.346-136.878 0-254.818-48.638-350.528-144.384-95.872-95.748-144.51-213.816-144.51-350.65 0-135.598 48.598-253.17 144.344-349.536 95.748-96.532 213.732-145.5 350.69-145.5 135.724 0 253.336 49.010 349.62 145.336 96.49 96.45 145.416 214.104 145.416 349.702 0 136.836-48.966 254.86-145.5 350.69zM783.774 166.997c-75.988-76.154-164.93-113.158-271.818-113.158-108 0-197.188 36.962-272.642 112.992-75.616 76.11-112.376 165.094-112.376 272.024 0 108.126 36.716 197.356 112.332 272.808 75.368 75.534 164.6 112.208 272.724 112.208l-0.040 0.040c106.968 0 195.912-36.756 271.982-112.376 76.070-75.452 113.034-164.684 113.034-272.642 0-106.762-36.962-195.786-113.198-271.9z" />
<glyph unicode="&#xe612;" d="M5.376 516.805c0 58.070 11.286 113.58 33.79 166.534 22.538 52.988 52.954 98.644 91.348 137.004s84.052 68.808 137.004 91.348 108.466 33.792 166.534 33.792c58.070 0 113.578-11.254 166.534-33.792 53.022-22.538 98.644-52.988 137.074-91.348 38.36-38.36 68.808-84.016 91.314-137.004 22.504-52.954 33.826-108.466 33.826-166.534 0-89.336-25.164-170.318-75.526-242.948l208.85-208.85c15.038-15.004 22.504-33.314 22.504-54.76 0-21.14-7.672-39.384-23.118-54.76-15.448-15.448-33.688-23.188-54.794-23.188-21.924 0-40.168 7.74-54.794 23.188l-208.85 208.202c-72.664-50.328-153.61-75.492-242.948-75.492-58.070 0-113.58 11.254-166.534 33.756-52.954 22.538-98.644 53.022-137.004 91.382s-68.808 84.052-91.348 137.004c-22.538 52.92-33.826 108.43-33.86 166.466v0zM161.236 516.805c0-75.118 26.698-139.324 80.062-192.722s117.604-80.096 192.722-80.096c75.118 0 139.392 26.698 192.722 80.096 53.398 53.362 80.062 117.604 80.062 192.722s-26.63 139.324-80.062 192.722c-53.328 53.362-117.604 80.062-192.722 80.062s-139.324-26.698-192.722-80.062-80.062-117.638-80.062-192.722z" />
<glyph unicode="&#xe613;" d="M532.646 159.887c0 18.198-3.13 35.526-8.898 51.678h120.932c-5.58-16.15-8.68-33.48-8.68-51.678 0-85.622 69.408-155 155-155s155 69.378 155 155c0 85.56-69.408 155-155 155h-341c-22.724 0-41.322 18.6-41.322 41.322s18.6 41.322 41.322 41.322h355.508c37.386 0 69.596 21.918 84.288 53.724 5.61 11.998 112.624 256.060 112.624 256.060 2.884 6.634 5.58 13.236 5.58 20.862 0 22.724-18.63 41.324-41.322 41.324h-645.234l-17.36 53.538c-8.028 28.736-30.566 49.818-60.728 49.818h-175.676c-28.52 0-51.676-23.158-51.676-51.678s23.158-51.678 51.676-51.678h108.5c18.384 0 33.884-11.998 39.278-28.302l87.204-445.75c-47.71-26.288-79.98-77.314-79.98-135.594 0-85.592 69.408-155 155-155s155 69.408 154.97 155.030v0zM429.292 159.887c0-28.52-23.156-51.678-51.678-51.678s-51.678 23.158-51.678 51.678 23.156 51.678 51.678 51.678 51.678-23.158 51.678-51.678zM842.646 159.887c0-28.52-23.158-51.678-51.678-51.678s-51.678 23.158-51.678 51.678 23.158 51.678 51.678 51.678 51.678-23.158 51.678-51.678z" />
<glyph unicode="&#xe614;" d="M864.544 846.493c-68.554 38.13-154.916 13.348-192.89-55.096l-263.304-473.794-150.664 150.664c-55.362 55.362-145.134 55.362-200.55 0s-55.362-145.134 0-200.548l283.618-283.618c26.804-26.856 62.966-41.64 100.248-41.64 6.542 0 13.132 0.424 19.624 1.438 44.034 6.172 82.698 32.6 104.29 71.528l354.562 638.18c38.078 68.498 13.402 154.812-55.042 192.89z" />
<glyph unicode="&#xe615;" d="M886.712 501.293h-749.43c-68.946 0-124.922-55.974-124.922-124.922s55.974-124.922 124.922-124.922h749.43c68.946 0 124.922 55.974 124.922 124.922s-55.974 124.922-124.922 124.922z" />
<glyph unicode="&#xe616;" d="M269.916 893.669c-55.362-55.362-55.362-145.134 0-200.548l254.208-254.26-254.208-254.26c-55.362-55.362-55.362-145.134 0-200.548 27.652-27.71 63.978-41.534 100.248-41.534s72.594 13.828 100.248 41.534l454.864 454.812-454.862 454.812c-55.31 55.362-145.242 55.362-200.55 0z" />
<glyph unicode="&#xe617;" d="M1010.644 438.857c0 137.688-55.85 262.354-146.044 352.606-90.254 90.196-214.916 146.044-352.608 146.044-137.628 0-262.288-55.852-352.544-146.044-90.254-90.252-146.104-214.916-146.104-352.606 0-137.626 55.85-262.288 146.104-352.544s214.916-146.106 352.544-146.106c137.69 0 262.354 55.85 352.608 146.106 90.196 90.254 146.044 214.916 146.044 352.544z" />
<glyph unicode="&#xe618;" d="M844.41 937.501h-664.884c-91.438 0-166.24-74.798-166.24-166.24v-664.884c0-91.438 74.8-166.24 166.24-166.24h664.884c91.438 0 166.24 74.798 166.24 166.24v664.884c0 91.438-74.798 166.24-166.24 166.24z" />
<glyph unicode="&#xe619;" d="M961.97 888.827c-64.824 64.886-170.226 64.886-235.050 0l-214.916-214.916-214.916 214.916c-64.824 64.886-170.228 64.886-235.050 0-64.886-64.886-64.886-170.106 0-235.050l214.854-214.916-214.854-214.916c-64.886-64.886-64.886-170.106 0-235.050 32.408-32.476 74.984-48.678 117.494-48.678s85.082 16.206 117.494 48.678l214.916 214.916 214.916-214.916c32.408-32.476 74.984-48.678 117.494-48.678s85.082 16.206 117.494 48.678c64.886 64.886 64.886 170.106 0 235.050l-214.854 214.916 214.854 214.916c64.886 64.886 64.886 170.106 0 235.050z" />
<glyph unicode="&#xe61a;" d="M1024.512 578.413l-385.318 7.754-127.122 355.548-126.61-355.548-385.39-7.754 307.2-227.694-111.616-360.376 316.416 214.966 317-214.966-111.544 360.376z" />
<glyph unicode="&#xe61b;" d="M974.726 663.501l-234.338 235.614c-44.090 44.31-120.928 44.794-165.852 0.352-11.472-11.472-20.526-25.542-24.484-36.884-38.288-79.826-79.342-129.806-132.092-159.826l-12.704-6.152c-56.75-28.442-133.938-57.366-276.58-57.366-15.602 0-30.552-3.034-44.882-8.924-28.35-11.824-51.518-34.856-63.43-63.52-11.648-28.35-11.648-61.014 0-89.366 6.11-14.596 14.638-27.606 25.496-38.156l189.588-189.588-224.006-313.726 313.678 224.006 189.148-189.148c10.904-11.078 23.778-19.868 38.46-25.846 14.466-6.024 29.496-9.010 44.882-9.010s30.418 3.034 44.836 9.010c29.188 12 51.738 34.682 63.296 63.168 6.024 14.198 9.1 29.716 9.1 45.012 0 142.774 28.968 219.918 57.32 276.712 29.054 58.158 80.224 102.466 161.414 141.5 15.87 6.11 29.892 14.988 41.672 26.772 45.23 45.846 45.012 120.224-0.482 165.412zM667.154 382.129c-48.002-96.312-69.628-197.5-70.024-328.452l-468.454 468.37c125.368 0 223.524 19.648 316.276 63.52l13.762 6.152c81.98 40.966 144.666 110.948 198.556 224.71l229.984-237.412c-109.188-52.352-179.126-114.862-220.096-196.888z" />
<glyph unicode="&#xe61c;" d="M694.426 834.987c52.86 0 105.818-20.13 146.034-60.346 80.576-80.576 80.576-211.538 0-291.964l-365.004-365.060c-40.16-40.21-93.124-60.394-145.98-60.394s-105.77 20.182-145.98 60.394c-80.528 80.476-80.528 211.538 0 291.964l41.658 41.658c-0.206-41.554 12.904-78.668 36.184-109.696l-4.854-4.956c-40.264-40.21-40.264-105.77 0-145.98 20.132-20.13 46.508-30.148 72.992-30.148s52.858 10.066 72.992 30.148l365.060 365.060c40.162 40.21 40.162 105.77 0 145.978-20.236 20.13-46.666 30.148-73.146 30.148-26.43 0-52.808-10.066-72.938-30.148l-234.096-234.198c-6.608-6.554-7.534-14.198-7.534-18.274 0-3.926 0.98-11.668 7.534-18.222 5.11-5.11 11.77-7.59 18.378-7.59 6.554 0 13.11 2.53 18.172 7.538l182.53 182.476c20.236-20.234 30.25-46.558 30.25-72.99 0-26.378-10.016-52.704-30.148-72.784-0.104-0.204-109.64-109.694-109.64-109.694-25.086-25.138-58.174-37.63-91.266-37.63s-66.072 12.596-91.316 37.63c-24.368 24.468-37.736 56.834-37.736 91.314 0 34.586 13.474 66.952 37.786 91.368l234.046 234.094c40.21 40.21 93.174 60.292 146.034 60.292zM694.426 938.223c-82.798 0-160.536-32.158-218.972-90.592l-364.902-365.11c-58.488-58.382-90.698-136.178-90.698-218.972s32.212-160.536 90.698-219.024c58.382-58.432 136.224-90.592 218.92-90.592s160.538 32.212 218.972 90.698l365.004 365.004c58.486 58.382 90.698 136.178 90.698 218.972 0 82.746-32.16 160.536-90.592 218.92-58.486 58.538-136.278 90.698-219.128 90.698z" />
<glyph unicode="&#xe61d;" d="M926.254 791.109c108.996-108.934 108.996-285.602 0-394.536l-339.976-340.008c-12.12-12.152-31.712-12.152-43.834 0-12.182 12.12-12.182 31.682 0 43.834l335.606 335.636c84.754 84.754 84.754 222.084-0.062 306.87-84.63 84.754-222.084 84.754-306.838 0l-447.858-442.586c-60.542-60.512-60.542-158.658 0-219.17 60.544-60.544 158.628-60.544 219.17 0l452.29 446.928c36.27 36.27 36.27 95.264 0 131.534-36.27 36.24-95.232 36.24-131.502 0l-340.038-340.038c-12.12-12.12-31.714-12.12-43.834 0-12.12 12.152-12.12 31.712 0 43.866l340.008 340.008c60.48 60.512 158.626 60.512 219.17 0 60.544-60.544 60.544-158.658 0-219.202l-452.29-446.958c-84.568-84.6-222.24-84.6-306.838 0s-84.6 222.3 0 306.9l452.29 446.928c108.934 108.996 285.604 108.996 394.538 0z" />
<glyph unicode="&#xe61e;" d="M842.024 718.375c29.814 0 55.006-25.192 55.006-55.006v-385.028c0-29.814-25.192-55.006-55.006-55.006h-485.63l-9.406-9.406v9.406h-165.012c-29.814 0-55.006 25.192-55.006 55.006v385.028c0 29.814 25.192 55.004 55.006 55.004h660.052zM842.024 828.385h-660.052c-90.758 0-165.012-74.258-165.012-165.012v-385.028c0-90.758 74.258-165.012 165.012-165.012h55.006v-165.012l165.012 165.012h440.032c90.758 0 165.012 74.258 165.012 165.012v385.028c0 90.758-74.258 165.012-165.012 165.012z" />
<glyph unicode="&#xe61f;" d="M1006.914 445.801c-0.31 1.302-0.124 2.698-0.62 3.968-0.186 0.526-0.65 0.806-0.836 1.302-0.31 0.744-0.248 1.582-0.65 2.294-89.9 172.082-285.604 295.368-492.062 295.368-206.49 0-402.164-123.1-492.126-295.15-0.402-0.714-0.342-1.55-0.65-2.294-0.216-0.496-0.65-0.774-0.836-1.302-0.496-1.272-0.31-2.666-0.62-3.968-0.558-2.324-1.086-4.558-1.086-6.944s0.558-4.588 1.086-6.944c0.31-1.302 0.124-2.698 0.62-3.968 0.186-0.528 0.65-0.806 0.836-1.302 0.31-0.744 0.248-1.582 0.65-2.294 89.93-172.082 285.634-295.368 492.126-295.368 206.46 0 402.164 123.1 492.062 295.152 0.434 0.712 0.372 1.55 0.65 2.294 0.186 0.496 0.65 0.774 0.836 1.302 0.496 1.27 0.31 2.666 0.62 3.968 0.528 2.356 1.086 4.588 1.086 6.944s-0.558 4.618-1.086 6.944zM512.712 191.229c-174.064 0-344.472 98.922-429.38 247.846 85.374 149.11 255.534 247.69 429.38 247.69 174.002 0 344.442-98.952 429.35-247.844-85.374-149.14-255.502-247.69-429.35-247.69zM512.712 562.887c8.556 0 15.438-6.914 15.438-15.5 0-8.524-6.914-15.468-15.438-15.468v-0.032c-51.274 0-92.968-41.694-92.968-92.906 0-8.556-6.944-15.5-15.468-15.5-8.556 0-15.5 6.944-15.5 15.5 0 68.356 55.396 123.752 123.752 123.876 0.062 0 0.124 0.030 0.186 0.030zM512 655.857c-119.878 0-217-97.154-217-217s97.154-217 217-217c119.816 0 217 97.184 217 217 0 119.876-97.184 217-217 217zM512 252.857c-102.58 0-186 83.422-186 186s83.42 186 186 186c102.578 0 186-83.422 186-186s-83.422-186-186-186z" />
<glyph unicode="&#xe620;" d="M897.028 168.337h-770.054c-60.67 0-110.006-49.34-110.006-110.006s49.34-110.006 110.006-110.006h770.054c60.672 0 110.006 49.34 110.006 110.006s-49.34 110.006-110.006 110.006zM897.028 553.365h-770.054c-60.67 0-110.006-49.34-110.006-110.010s49.34-110.006 110.006-110.006h770.054c60.672 0 110.006 49.34 110.006 110.006s-49.34 110.010-110.006 110.010zM897.028 938.391h-770.054c-60.67 0-110.006-49.34-110.006-110.010s49.34-110.006 110.006-110.006h770.054c60.672 0 110.006 49.34 110.006 110.006s-49.34 110.010-110.006 110.010z" />
<glyph unicode="&#xe621;" d="M512 769.801c28.054 0 55.958-17.702 77.21-53.108l295.642-492.77c42.554-70.76 9.702-128.666-72.812-128.666h-600.084c-82.51 0-115.366 57.96-72.808 128.666l295.64 492.77c21.25 35.404 49.156 53.11 77.212 53.11zM512 869.815c-64.808 0-124.118-37.002-162.972-101.564l-295.642-492.87c-39.306-65.46-43.604-135.27-11.754-191.526s93.964-88.614 170.322-88.614h600.084c76.36 0 138.522 32.302 170.322 88.562s27.554 126.068-11.754 191.526l-295.642 492.77c-38.856 64.71-98.164 101.714-162.972 101.714zM587.010 207.875c0 0-35.554-18.054-53.756-9.1-18.102 9.202-21.702 27.052-11.452 57.61l20.302 61.058c20.154 61.058-6.052 103.814-54.108 106.566-62.908 3.5-101.016-41.308-101.016-41.308s35.506 18.25 53.76 9.1c18.1-9.202 21.604-27.052 11.452-57.61l-20.302-61.058c-20.252-61.058 5.95-103.716 54.108-106.566 62.906-3.548 101.016 41.308 101.016 41.308zM577.060 545.321c0-35.93-29.128-65.060-65.060-65.060s-65.060 29.128-65.060 65.060c0 35.932 29.128 65.060 65.060 65.060s65.060-29.128 65.060-65.060z" />
<glyph unicode="&#xe622;" d="M512 831.105c96.942 0 175.83-78.89 175.83-175.83s-78.888-175.83-175.83-175.83-175.83 78.89-175.83 175.83 78.888 175.83 175.83 175.83zM512 948.329c-161.996 0-293.050-131.168-293.050-293.050s131.052-293.052 293.050-293.052 293.050 131.168 293.050 293.052-131.052 293.050-293.050 293.050zM512 186.399c118.452 0 193.47-45.188 221.722-84.692-40.028-15.236-115.402-32.528-221.722-32.528-116.286 0-187.902 17.876-223.774 31.77 26.902 41.906 104.154 85.452 223.774 85.452zM512 303.615c-219.788 0-351.658-117.218-351.658-234.442 0-58.612 131.874-117.218 351.658-117.218 206.188 0 351.658 58.612 351.658 117.218s-137.968 234.442-351.658 234.442z" />
<glyph unicode="&#xe623;" d="M556.044 714.125c0-24.324-19.718-44.044-44.044-44.044s-44.044 19.72-44.044 44.044c0 24.324 19.72 44.042 44.044 44.042s44.044-19.72 44.044-44.042zM855.226 445.639c5.9 14.976 9.116 31.228 9.116 48.274 0 72.846-59.28 132.128-132.13 132.128h-18.586c12.024 27.264 18.586 57.124 18.586 88.086 0 121.428-98.788 220.214-220.214 220.214s-220.214-98.788-220.214-220.214c0-30.964 6.562-60.826 18.584-88.086h-18.584c-72.846 0-132.128-59.28-132.128-132.13 0-17.046 3.218-33.298 9.116-48.274-32.24-24.134-53.158-62.63-53.158-105.88 0-218.586 177.8-396.388 396.388-396.388s396.386 177.802 396.386 396.386c0 43.252-20.922 81.742-53.162 105.88zM512 31.459c-169.962 0-308.3 138.34-308.3 308.302 0 24.356 19.688 44.044 44.042 44.044s44.044-19.688 44.044-44.044c0-106.318 75.796-195.288 176.174-215.722v325.83h-176.174c-24.358 0-44.044 19.688-44.044 44.044s19.688 44.042 44.044 44.042h176.174v52.148c-51.18 18.188-88.084 66.55-88.084 124.026 0 72.98 59.148 132.13 132.13 132.13s132.13-59.15 132.13-132.13c0-57.476-36.908-105.834-88.086-124.026v-52.148h176.174c24.356 0 44.044-19.688 44.044-44.042s-19.688-44.044-44.044-44.044h-176.174v-325.83c100.374 20.48 176.174 109.404 176.174 215.722 0 24.356 19.688 44.044 44.044 44.044s44.044-19.688 44.044-44.044c0-169.962-138.338-308.3-308.302-308.3zM305.922 405.825h117.99v-218.542c-53.162 30.874-88.084 88.48-88.084 152.476 0 26.294-11.584 49.9-29.906 66.064zM718.076 405.825c-18.322-16.164-29.908-39.77-29.908-66.064 0-63.996-34.928-121.602-88.086-152.476v218.542h117.99z" />
<glyph unicode="&#xe624;" d="M438.858 576.001q0 60.572-42.858 103.43t-103.428 42.856-103.43-42.856-42.856-103.428 42.856-103.428 103.43-42.856 103.428 42.856 42.856 103.428zM585.144 576.001q0-62.286-18.856-102.286l-208-442.286q-9.144-18.856-27.144-29.714t-38.572-10.856-38.57 10.856-26.57 29.714l-208.57 442.286q-18.856 40-18.856 102.286 0 121.142 85.714 206.856t206.856 85.714 206.856-85.714 85.714-206.856z" horiz-adv-x="586" />
<glyph unicode="&#xe625;" d="M804.572 233.143q0-15.428-5.714-40.286t-12-39.144q-12-28.572-69.714-60.572-53.714-29.144-106.286-29.144-15.428 0-30 2t-32.856 7.144-27.144 8.286-31.714 11.714-28 10.286q-56 20-100 47.428-73.142 45.144-151.144 123.144t-123.144 151.144q-27.43 44-47.43 100-1.714 5.142-10.286 28t-11.714 31.714-8.286 27.144-7.142 32.856-2 30q0 52.572 29.144 106.286 32 57.714 60.57 69.714 14.286 6.286 39.144 12t40.286 5.714q8 0 12-1.714 10.286-3.428 30.286-43.428 6.286-10.858 17.144-30.858t20-36.286 17.714-30.572q1.714-2.286 10-14.286t12.286-20.286 4-16.286q0-11.428-16.286-28.572t-35.43-31.428-35.43-30.286-16.286-26.286q0-5.144 2.856-12.856t4.856-11.714 8-13.714 6.57-10.856q43.43-78.286 99.43-134.286t134.286-99.428q1.142-0.572 10.856-6.572t13.714-8 11.714-4.856 12.856-2.856q10.286 0 26.286 16.286t30.286 35.428 31.428 35.428 28.572 16.286q8 0 16.286-4t20.286-12.286 14.286-10q14.286-8.572 30.572-17.714t36.286-20 30.856-17.144q40-20 43.428-30.286 1.714-4 1.714-12z" horiz-adv-x="806" />
<glyph unicode="&#xe626;" d="M1024 536.001v-453.714q0-37.714-26.856-64.572t-64.572-26.856h-841.144q-37.714 0-64.57 26.856t-26.856 64.572v453.714q25.144-28 57.714-49.714 206.858-140.572 284-197.144 32.57-24 52.858-37.428t54-27.428 62.856-14h1.144q29.144 0 62.856 14t54 27.428 52.856 37.428q97.144 70.286 284.572 197.144 32.572 22.286 57.144 49.714zM1024 704.001q0-45.142-28-86.286t-69.714-70.286q-214.856-149.142-267.428-185.714-5.714-4-24.286-17.428t-30.856-21.714-29.714-18.572-32.856-15.428-28.572-5.144h-1.142q-13.142 0-28.572 5.144t-32.858 15.428-29.714 18.572-30.858 21.714-24.286 17.428q-52 36.572-149.714 104.286t-117.144 81.43q-35.43 24-66.856 66t-31.428 78q0 44.57 23.714 74.286t67.714 29.714h841.144q37.144 0 64.286-26.856t27.144-64.572z" />
<glyph unicode="&#xe627;" d="M164.57 722.285q37.714 0 64.57-26.856t26.856-64.57v-621.714q0-37.714-26.856-64.572t-64.57-26.856h-73.144q-37.714 0-64.57 26.856t-26.856 64.572v621.714q0 37.714 26.856 64.57t64.57 26.858h73.144zM950.856 629.143q33.144-19.428 53.144-53.144t20-73.144v-438.858q0-60.572-42.856-103.428t-103.428-42.858h-493.714q-37.714 0-64.57 26.856t-26.856 64.572v877.714q0 22.856 16 38.856t38.856 16h384q22.856 0 50.286-11.428t43.428-27.428l86.856-86.858q16-16 27.428-43.428t11.428-50.286v-93.142zM530.286 64.001v73.144q0 8-5.144 13.144t-13.144 5.144h-73.144q-8 0-13.144-5.144t-5.142-13.144v-73.144q0-8 5.142-13.144t13.144-5.144h73.144q8 0 13.144 5.144t5.144 13.144zM530.286 210.285v73.144q0 8-5.144 13.144t-13.144 5.144h-73.144q-8 0-13.144-5.144t-5.142-13.144v-73.144q0-8 5.142-13.144t13.144-5.144h73.144q8 0 13.144 5.144t5.144 13.144zM530.286 356.571v73.144q0 8-5.144 13.144t-13.144 5.142h-73.144q-8 0-13.144-5.142t-5.142-13.144v-73.144q0-8 5.142-13.144t13.144-5.144h73.144q8 0 13.144 5.144t5.144 13.144zM676.572 64.001v73.144q0 8-5.144 13.144t-13.144 5.144h-73.144q-8 0-13.144-5.144t-5.144-13.144v-73.144q0-8 5.144-13.144t13.144-5.144h73.144q8 0 13.144 5.144t5.144 13.144zM676.572 210.285v73.144q0 8-5.144 13.144t-13.144 5.144h-73.144q-8 0-13.144-5.144t-5.144-13.144v-73.144q0-8 5.144-13.144t13.144-5.144h73.144q8 0 13.144 5.144t5.144 13.144zM676.572 356.571v73.144q0 8-5.144 13.144t-13.144 5.142h-73.144q-8 0-13.144-5.142t-5.144-13.144v-73.144q0-8 5.144-13.144t13.144-5.144h73.144q8 0 13.144 5.144t5.144 13.144zM822.856 64.001v73.144q0 8-5.144 13.144t-13.144 5.144h-73.144q-8 0-13.144-5.144t-5.144-13.144v-73.144q0-8 5.144-13.144t13.144-5.144h73.144q8 0 13.144 5.144t5.144 13.144zM822.856 210.285v73.144q0 8-5.144 13.144t-13.144 5.144h-73.144q-8 0-13.144-5.144t-5.144-13.144v-73.144q0-8 5.144-13.144t13.144-5.144h73.144q8 0 13.144 5.144t5.144 13.144zM822.856 356.571v73.144q0 8-5.144 13.144t-13.144 5.142h-73.144q-8 0-13.144-5.142t-5.144-13.144v-73.144q0-8 5.144-13.144t13.144-5.144h73.144q8 0 13.144 5.144t5.144 13.144zM877.714 576.001v146.286h-91.428q-22.856 0-38.856 16t-16 38.856v91.428h-365.714v-292.572h512z" />
<glyph unicode="&#xe628;" d="M512 665.51c66.606 0 130.965-19.528 181.347-55.225 71.561-50.602 133.66-116.828 174.088-164.795-40.429-47.965-102.527-114.246-174.142-164.791-50.329-35.7-114.683-55.223-181.294-55.223s-131.017 19.528-181.459 55.223c-71.561 50.604-133.66 116.828-174.034 164.791 40.373 47.965 102.471 114.188 174.034 164.737 50.439 35.754 114.849 55.278 181.459 55.278zM512 775.518c-93.013 0-178.322-28.381-244.935-75.413-144.057-101.869-250.102-254.615-250.102-254.615s106.047-152.747 250.102-254.615c66.606-47.029 151.921-75.413 244.935-75.413s178.324 28.381 244.823 75.413c144.057 101.869 250.215 254.615 250.215 254.615s-106.156 152.747-250.215 254.615c-66.499 47.029-151.811 75.413-244.823 75.413zM512 500.498c-30.419 0-55.006-24.587-55.006-55.006 0-30.308 24.587-55.006 55.006-55.006 30.308 0 55.006 24.699 55.006 55.006 0 30.419-24.699 55.006-55.006 55.006zM512 280.482c-90.979 0-165.012 74.034-165.012 165.012s74.034 165.012 165.012 165.012 165.012-74.034 165.012-165.012-74.034-165.012-165.012-165.012zM512 555.502c-60.723 0-110.006-49.283-110.006-110.009s49.281-110.006 110.006-110.006 110.006 49.283 110.006 110.006-49.283 110.009-110.006 110.009z" />
<glyph unicode="&#xe629;" d="M862.049 70.942h-700.095c-82.711 0-150.021 67.308-150.021 150.021v400.057c0 82.711 67.31 150.021 150.021 150.021h79.309l50.009 50.007c28.955 28.955 79.812 50.009 120.718 50.009h200.026c40.904 0 91.764-21.053 120.714-50.009l50.009-50.007h79.309c82.714 0 150.021-67.31 150.021-150.021v-400.057c0-82.714-67.308-150.021-150.021-150.021zM161.951 671.026c-27.605 0-50.009-22.405-50.009-50.007v-400.057c0-27.605 22.405-50.009 50.009-50.009h700.095c27.605 0 50.009 22.405 50.009 50.009v400.057c0 27.605-22.405 50.009-50.009 50.009h-100.012c-13.303 0-26.006 5.251-35.353 14.651l-64.659 64.659c-10.052 10.052-35.754 20.703-50.009 20.703h-200.029c-14.251 0-39.958-10.651-50.009-20.703l-64.659-64.659c-9.35-9.403-22.054-14.651-35.355-14.651h-100.012zM512 571.011c68.958 0 125.019-56.059 125.019-125.019s-56.057-125.019-125.019-125.019-125.019 56.057-125.019 125.019 56.059 125.019 125.019 125.019zM512 621.017c-96.712 0-175.023-78.311-175.023-175.026 0-96.613 78.311-175.023 175.023-175.023s175.023 78.41 175.023 175.023c0 96.714-78.311 175.026-175.023 175.026zM812.040 636.070c-35.958 0-65.009-29.105-65.009-65.060s29.053-64.96 65.009-64.96 65.009 29.005 65.009 64.96-29.053 65.060-65.009 65.060z" />
<glyph unicode="&#xe62a;" d="M311.974 457.003c0-27.618-22.391-50.009-50.007-50.009s-50.009 22.391-50.009 50.009c0 27.618 22.389 50.009 50.009 50.009s50.009-22.391 50.009-50.009zM991.317 647.629c-13.101 9.403-29.954 12.053-45.055 6.852l-85.361-28.404c-9.401 73.861-72.558 131.016-148.872 131.016h-550.077c-82.711 0-150.021-67.359-150.021-150.021v-300.040c0-82.66 67.31-150.021 150.021-150.021h150.021v-55.558l0.401-4.501c3.301-36.905 19.052-71.162 44.355-96.413 28.102-28.106 65.56-43.607 105.216-43.607s77.11 15.501 105.216 43.506c28.703 28.856 44.905 67.308 44.806 105.664v50.858h100.012c76.211 0 139.467 57.256 148.921 131.018l85.361-28.406c15.151-5.202 32.006-2.55 45.007 6.901 13.101 9.401 20.753 24.505 20.753 40.605v300.040c0.051 15.902-7.651 31.054-20.703 40.506zM512 105.806c0.051-12.402-5.949-25.001-15.452-34.455-9.551-9.451-22.054-14.301-34.603-14.301-12.501 0-25.054 4.853-34.505 14.301-9.501 9.451-14.251 22.054-15.452 34.554v101.065h100.015v-101.163zM762.034 306.983c0-27.605-22.405-50.009-50.009-50.009h-550.077c-27.605 0-50.009 22.405-50.009 50.009v300.040c0 27.605 22.405 50.009 50.009 50.009h550.077c27.605 0 50.009-22.405 50.009-50.009v-300.040zM912.055 376.444c0 0-94.761 30.253-100.012 30.253v100.615c5.251 0 100.012 30.255 100.012 30.255v-161.123z" />
<glyph unicode="&#xe62b;" d="M461.993 757.135c110.314 0 200.026-89.713 200.026-200.029s-89.713-200.029-200.029-200.029c-110.215 0-199.929 89.713-199.929 200.029s89.713 200.029 199.929 200.029zM461.993 857.15c-165.721 0-299.94-134.317-299.94-300.040s134.218-300.040 299.94-300.040c165.622 0 300.040 134.419 300.040 300.040 0 165.721-134.419 300.040-300.040 300.040zM762.034 57.039h-200.029v61.509c82.061 18.552 157.323 59.407 218.18 120.316 84.961 84.961 131.867 198.027 131.867 318.195 0 103.364-34.554 201.427-98.413 280.99l33.755 33.654c19.551 19.551 19.551 51.157 0.051 70.76-19.604 19.604-51.208 19.502-70.76 0.051l-102.613-102.464 35.404-35.404c66.107-66.060 102.565-154.022 102.565-247.535s-36.455-181.375-102.565-247.485-153.971-102.565-247.485-102.565-181.375 36.455-247.485 102.565c-19.551 19.551-51.157 19.551-70.712 0-19.551-19.502-19.551-51.157 0-70.712 84.961-84.961 197.978-131.867 318.195-131.867v-50.009h-200.026c-27.655 0-50.009-22.354-50.009-50.009s22.354-50.009 50.009-50.009h500.068c27.655 0 50.009 22.354 50.009 50.009s-22.354 50.009-50.009 50.009z" />
<glyph unicode="&#xe62c;" d="M340 402.286q0-7.428-5.714-13.144l-266.286-266.286q-5.714-5.714-13.144-5.714t-13.144 5.714l-28.572 28.572q-5.714 5.714-5.714 13.144t5.714 13.144l224.57 224.572-224.57 224.572q-5.714 5.714-5.714 13.144t5.714 13.144l28.57 28.572q5.714 5.714 13.144 5.714t13.144-5.714l266.286-266.286q5.714-5.714 5.714-13.144z" horiz-adv-x="366" />
<glyph unicode="&#xe62d;" d="M358.286 640q0-7.428-5.714-13.142l-224.57-224.572 224.57-224.572q5.714-5.714 5.714-13.144t-5.714-13.144l-28.572-28.572q-5.714-5.714-13.144-5.714t-13.144 5.714l-266.286 266.286q-5.714 5.714-5.714 13.144t5.714 13.144l266.286 266.286q5.714 5.714 13.144 5.714t13.144-5.714l28.572-28.572q5.714-5.714 5.714-13.142z" horiz-adv-x="366" />
<glyph unicode="&#xe62f;" d="M365.714 804.572h292.572v73.144h-292.572v-73.144zM1024 438.858v-274.286q0-37.714-26.856-64.572t-64.572-26.856h-841.144q-37.714 0-64.57 26.856t-26.856 64.572v274.286h384v-91.428q0-14.856 10.856-25.714t25.714-10.856h182.858q14.856 0 25.714 10.856t10.856 25.714v91.428h384zM585.144 438.858v-73.144h-146.286v73.144h146.286zM1024 713.144v-219.428h-1024v219.428q0 37.714 26.856 64.572t64.57 26.856h201.144v91.428q0 22.858 16 38.858t38.856 16h329.142q22.856 0 38.856-16t16-38.858v-91.428h201.144q37.714 0 64.572-26.856t26.856-64.572z" />
<glyph unicode="&#xe64a;" d="M438.858 877.714q119.43 0 220.286-58.856t159.714-159.714 58.856-220.286-58.856-220.286-159.714-159.714-220.286-58.856-220.286 58.856-159.714 159.714-58.856 220.286 58.856 220.286 159.714 159.714 220.286 58.856zM595.428 580q-1.144-0.572-5.428-5.428t-7.714-5.428q1.144 0 2.572 2.858t2.856 6.286 2 4q3.428 4 12.572 8.572 8 3.428 29.714 6.858 19.428 4.572 29.144-6.286-1.144 1.144 5.428 7.428t8.286 6.858q1.714 1.142 8.572 2.572t8.572 4.286l1.144 12.572q-6.856-0.572-10 4t-3.714 12q0-1.142-3.428-4.572 0 4-2.572 4.572t-6.572-0.572-5.144-0.572q-5.714 1.714-8.572 4.286t-4.572 9.428-2.286 8.572q-1.144 2.856-5.428 6t-5.428 6q-0.572 1.142-1.428 3.142t-1.714 3.714-2.286 3.142-3.144 1.428-4-2.856-4.286-5.714-2.572-2.856q-1.714 1.142-3.428 0.856t-2.572-0.572-2.572-1.714-2.856-2q-1.714-1.144-4.856-1.714t-4.856-1.142q8.572 2.856-0.572 6.286-5.714 2.286-9.144 1.714 5.144 2.286 4.286 6.856t-4.856 8h2.856q-0.572 2.286-4.856 4.856t-10 4.858-7.428 3.428q-4.572 2.856-19.428 5.428t-18.856 0.286q-2.856-3.428-2.572-6t2.286-8 2-7.144q0.572-3.428-3.144-7.428t-3.714-6.856q0-4 8-8.856t5.714-12.286q-1.714-4.572-9.144-9.142t-9.144-6.858q-2.856-4.572-0.856-10.572t6-9.428q1.144-1.142 0.856-2.286t-2-2.572-3.144-2.286-3.714-2l-1.714-1.142q-6.286-2.858-11.714 3.428t-7.714 14.856q-4 14.286-9.144 17.144-13.144 4.572-16.572-0.572-2.858 7.428-23.428 14.856-14.286 5.142-33.144 2.286 3.428 0.572 0 8.572-4 8.572-10.856 6.858 1.714 3.428 2.286 10t0.572 7.714q1.714 7.43 6.858 13.144 0.572 0.572 4 4.856t5.428 7.714 0.286 3.428q20-2.286 28.572 6.286 2.858 2.856 6.572 9.714t6 9.714q5.142 3.43 8 3.144t8.286-3.144 8.286-2.856q8-0.57 8.858 6.286t-4.286 11.428q6.858-0.572 1.714 9.714-2.858 4-4.572 5.142-6.858 2.286-15.428-2.856-4.572-2.286 1.142-4.572-0.572 0.572-5.428-6t-9.428-10-9.142 2.856q-0.572 0.572-3.142 7.714t-5.428 7.714q-4.572 0-9.142-8.572 1.714 4.572-6.286 8.572t-13.714 4.57q10.856 6.856-4.572 15.43-4 2.286-11.714 2.856t-11.142-2.286q-2.858-4-3.142-6.57t2.858-4.572 6-3.144 6.572-2.286 4.858-1.714q8-5.714 4.572-8-1.142-0.572-4.858-2t-6.572-2.572-3.428-2.286q-1.714-2.286 0-8t-1.142-8q-2.858 2.856-5.142 10t-4 9.428q4-5.144-14.286-3.428l-5.714 0.572q-2.286 0-9.144-1.144t-11.714-0.572-7.714 4.572q-2.286 4.57 0 11.428 0.572 2.286 2.286 1.144-2.286 1.714-6.286 5.428t-5.714 4.856q-26.286-8.57-53.714-23.428 3.428-0.572 6.858 0.572 2.858 1.144 7.428 3.714t5.714 3.144q19.428 8 24 4l2.858 2.856q8-9.144 11.428-14.286-4 2.286-17.142 0.572-11.428-3.43-12.572-6.858 4-6.856 2.858-10.286-2.286 1.714-6.572 5.714t-8.286 6.286-8.572 2.856q-9.144 0-12.572-0.572-83.43-45.714-134.286-126.856 4-4 6.856-4.572 2.286-0.572 2.856-5.144t1.43-6.286 6.57 1.714q5.144-4.572 1.714-10.856 0.57 0.572 25.144-15.428 10.856-9.714 12-12 1.714-6.286-5.714-10.286-0.57 1.144-5.144 5.144t-5.144 2.286q-1.714-2.856 0.286-10.572t6-7.142q-4 0-5.43-9.144t-1.43-20.286-0.57-13.428l1.144-0.572q-1.714-6.856 3.144-19.714t12.286-11.144q-7.43-1.714 11.43-24.572 3.43-4.572 4.57-5.144 1.714-1.142 6.856-4.286t8.57-5.714 5.714-6q2.286-2.856 5.714-12.856t8-13.428q-1.144-3.428 5.43-11.428t6-13.144q-0.57 0-1.43-0.572t-1.43-0.572q1.714-4 8.856-8t8.858-7.428q0.572-1.714 1.142-5.714t1.714-6.286 4.572-1.144q1.142 11.428-13.714 35.428-8.57 14.286-9.714 16.572-1.714 2.856-3.144 8.856t-2.57 8.286q1.144 0 3.43-0.856t4.856-2 4.286-2.286 1.144-1.714q-1.714-4 1.144-10t6.858-10.572 9.714-10.856 6.858-7.428q3.428-3.428 8-11.144t0-7.714q5.142 0 11.428-5.714t9.714-11.428q2.858-4.572 4.572-14.856t2.858-13.714q1.142-4 4.858-7.714t7.142-5.428l9.142-4.572t7.428-4q2.858-1.144 10.572-6t12.286-6.572q5.714-2.286 9.142-2.286t8.286 1.428 7.714 2q8.572 1.144 16.572-8.572t12-12q20.572-10.856 31.428-6.286-1.142-0.572 0.286-4.286t4.572-8.856 5.142-8.286 3.142-4.856q2.858-3.428 10.286-8.572t10.286-8.572q3.428 2.286 4 5.144-1.714-4.572 4-11.428t10.286-5.714q8 1.714 8 18.286-17.714-8.572-28 10.286 0 0.572-1.428 3.144t-2.286 4.856-1.428 4.856 0 4.286 2.858 1.714q5.142 0 5.714 2t-1.142 7.144-2.286 7.428q-0.572 4.572-6.286 11.428t-6.858 8.572q-2.858-5.144-9.142-4.572t-9.144 5.144q0-0.572-0.858-3.144t-0.858-3.714q-7.428 0-8.572 0.572 0.572 1.714 1.428 10t2 12.856q0.572 2.286 3.142 6.856t4.286 8.286 2.286 7.144-2.572 5.428-10 1.428q-10.858-0.572-14.858-11.428-0.572-1.714-1.714-6t-2.858-6.572-5.142-4q-4-1.714-13.714-1.144t-13.714 2.856q-7.428 4.572-12.858 16.572t-5.428 21.144q0 5.714 1.428 15.144t1.714 14.286-3.142 14q1.714 1.144 5.142 5.428t5.714 6q1.142 0.572 2.572 0.856t2.572 0 2.286 0.856 1.714 3.428q-0.572 0.572-2.286 1.714-1.714 1.714-2.286 1.714 4-1.714 16.286 0.856t15.714-0.856q8.572-6.286 12.572 1.144 0 0.572-1.428 5.428t-0.286 7.714q2.858-15.428 16.572-5.144 1.714-1.714 8.858-2.856t10-2.856q1.714-1.144 4-3.144t3.142-2.572 2.858 0.286 4.858 3.714q5.714-8 6.858-13.714 6.286-22.856 10.856-25.144 4-1.714 6.286-1.144t2.572 5.428 0 8-0.858 7.144l-0.572 4.572v10.286l-0.572 4.572q-8.572 1.714-10.572 6.856t0.858 10.572 8.572 10.572q0.572 0.572 4.572 2t8.858 3.714 7.144 4.572q12 10.858 8.572 20 4 0 6.286 5.144-0.572 0-2.856 1.714t-4.286 2.858-2.572 1.142q5.144 2.858 1.144 9.144 2.856 1.714 4.286 6.286t4.286 5.714q5.144-6.858 12-1.144 4 4.572 0.572 9.144 2.856 4 11.714 6t10.572 5.428q4-1.144 4.572 1.142t0.572 6.858 1.714 6.856q2.286 2.858 8.572 5.144t7.428 2.856l9.714 6.286q1.714 2.286 0 2.286 10.286-1.142 17.714 6.286 5.714 6.286-3.428 11.428 1.714 3.428-1.714 5.428t-8.572 3.142q1.714 0.572 6.572 0.286t6 0.856q8.572 5.714-4 9.144-9.714 2.856-24.572-6.858zM502.286 78.858q117.714 20.572 200.57 108-1.714 1.714-7.144 2.572t-7.144 2q-10.286 4-13.714 4.572 0.572 4-1.428 7.428t-4.572 5.144-7.144 4.572-6.286 4q-1.144 1.144-4 3.428t-4 3.144-4.286 2.572-4.856 1.144-5.714-0.572l-1.714-0.572q-1.714-0.572-3.144-1.428t-3.144-1.714-2.286-1.714 0-1.428q-12 9.714-20.572 12.572-2.856 0.572-6.286 3.144t-6 4-5.714 0.856-6.572-4q-2.856-2.856-3.428-8.572t-1.144-7.428q-4 2.856 0 10t1.144 10.572q-1.714 3.428-6 2.572t-6.856-2.572-6.572-4.856-5.144-3.714-4.856-3.144-4.856-4.286q-1.714-2.286-3.428-6.856t-2.856-6.286q-1.144 2.286-6.572 3.714t-5.428 3.144q1.144-5.714 2.286-20t2.856-21.714q4-17.714-6.856-27.428-15.428-14.286-16.572-22.856-2.286-12.572 6.858-14.856 0-4-4.572-11.714t-4-12.286q0-3.428 1.142-9.144z" />
<glyph unicode="&#xe64b;" d="M548.572 566.858q68 0 116.286-48.286t48.286-116.286-48.286-116.286-116.286-48.286-116.286 48.286-48.286 116.286 48.286 116.286 116.286 48.286zM950.856 804.572q60.572 0 103.43-42.856t42.856-103.428v-512q0-60.572-42.856-103.428t-103.428-42.856h-804.572q-60.57 0-103.43 42.856t-42.856 103.428v512q0 60.572 42.856 103.428t103.43 42.856h128l29.144 77.714q10.856 28 39.714 48.286t59.142 20.286h292.572q30.286 0 59.144-20.286t39.714-48.286l29.144-77.714h128zM548.572 146.286q105.714 0 180.856 75.144t75.144 180.856-75.144 180.856-180.856 75.144-180.856-75.144-75.144-180.856 75.144-180.856 180.856-75.144z" horiz-adv-x="1098" />
<glyph unicode="&#xe64c;" d="M365.714 73.144q0-30.286-21.428-51.714t-51.714-21.428-51.714 21.428-21.43 51.714 21.43 51.714 51.714 21.428 51.714-21.428 21.428-51.714zM877.714 73.144q0-30.286-21.428-51.714t-51.714-21.428-51.714 21.428-21.428 51.714 21.428 51.714 51.714 21.428 51.714-21.428 21.428-51.714zM950.856 694.858v-292.572q0-13.714-9.144-24.286t-23.428-12.286l-596.572-69.714q0.572-4 2.572-12.286t3.428-15.144 1.428-12.572q0-9.144-13.714-36.572h525.714q14.856 0 25.714-10.856t10.856-25.714-10.856-25.714-25.714-10.856h-585.144q-14.856 0-25.714 10.856t-10.856 25.714q0 8 6.286 22.572t16.856 34 11.714 21.714l-101.144 470.286h-116.57q-14.856 0-25.714 10.858t-10.856 25.714 10.856 25.714 25.714 10.858h146.286q9.144 0 16.286-3.714t11.43-8.856 7.43-14 4.286-15.144 3.144-16.856 2.57-14.572h686.286q14.856 0 25.714-10.856t10.856-25.714z" horiz-adv-x="952" />
<glyph unicode="&#xe64d;" d="M1024 749.714v-621.714q0-24-22.286-33.714-7.428-2.856-14.286-2.856-15.428 0-25.714 10.856l-230.286 230.286v-94.856q0-68-48.286-116.286t-116.286-48.286h-402.286q-68 0-116.286 48.286t-48.286 116.286v402.286q0 68 48.286 116.286t116.286 48.286h402.286q68 0 116.286-48.286t48.286-116.286v-94.286l230.286 229.714q10.286 10.856 25.714 10.856 6.856 0 14.286-2.856 22.286-9.714 22.286-33.714z" />
<glyph unicode="&#xe64f;" d="M950.856 402.286q-86.856 134.856-217.714 201.714 34.856-59.428 34.856-128.57 0-105.714-75.144-180.856t-180.856-75.144-180.856 75.144-75.144 180.856q0 69.144 34.856 128.572-130.856-66.856-217.714-201.714 76-117.144 190.57-186.572t248.286-69.428 248.286 69.428 190.572 186.572zM539.428 621.714q0 11.428-8 19.428t-19.428 8q-71.428 0-122.572-51.142t-51.144-122.572q0-11.428 8-19.428t19.428-8 19.428 8 8 19.428q0 49.144 34.856 84t84 34.856q11.428 0 19.428 8t8 19.428zM1024 402.286q0-19.428-11.428-39.428-80-131.428-215.144-210.572t-285.428-79.144-285.428 79.428-215.144 210.286q-11.43 20-11.43 39.428t11.43 39.428q80 130.856 215.144 210.286t285.428 79.428 285.428-79.428 215.144-210.286q11.428-20 11.428-39.428z" />
<glyph unicode="&#xe65a;" d="M832 256q0 22.856-16 38.856l-118.856 118.856q-16 16-38.856 16-24 0-41.144-18.286 1.714-1.714 10.856-10.572t12.286-12.286 8.572-10.856 7.428-14.572 2-15.714q0-22.856-16-38.856t-38.856-16q-8.572 0-15.714 2t-14.572 7.428-10.856 8.572-12.286 12.286-10.572 10.856q-18.856-17.714-18.856-41.714 0-22.856 16-38.856l117.714-118.286q15.428-15.428 38.856-15.428 22.856 0 38.856 14.856l84 83.428q16 16 16 38.286zM430.286 658.858q0 22.856-16 38.856l-117.714 118.286q-16 16-38.856 16-22.286 0-38.856-15.43l-84-83.428q-16-16-16-38.286 0-22.856 16-38.856l118.856-118.856q15.428-15.428 38.856-15.428 24 0 41.144 17.714-1.714 1.714-10.856 10.572t-12.286 12.286-8.572 10.856-7.428 14.572-2 15.714q0 22.858 16 38.858t38.858 16q8.572 0 15.714-2t14.572-7.428 10.858-8.572 12.286-12.286 10.572-10.856q18.858 17.714 18.858 41.714zM941.714 256q0-68.572-48.572-116l-84-83.428q-47.428-47.428-116-47.428-69.144 0-116.572 48.572l-117.714 118.286q-47.43 47.428-47.43 116 0 70.286 50.286 119.428l-50.286 50.286q-49.144-50.286-118.856-50.286-68.57 0-116.57 48l-118.856 118.856q-48 48-48 116.572t48.57 116l84 83.428q47.43 47.428 116 47.428 69.144 0 116.572-48.57l117.714-118.286q47.43-47.428 47.43-116 0-70.286-50.286-119.428l50.286-50.286q49.144 50.286 118.856 50.286 68.572 0 116.572-48l118.856-118.856q48-48 48-116.572z" horiz-adv-x="952" />
</font>
</defs>
</svg>
